<svg xmlns="http://www.w3.org/2000/svg" width="430" height="430" style="width:100%;height:100%;transform:translate3d(0,0,0);content-visibility:visible" viewBox="0 0 430 430"><defs><clipPath id="g"><path d="M0 0h430v430H0z"/></clipPath><clipPath id="m"><path d="M0 0h430v430H0z"/></clipPath><clipPath id="l"><path d="M0 0h430v430H0z"/></clipPath><clipPath id="h"><path d="M0 0h430v430H0z"/></clipPath><clipPath id="i"><path d="M0 0h430v430H0z"/></clipPath><clipPath id="f"><path d="M0 0h430v430H0z"/></clipPath><filter id="a" width="100%" height="100%" x="0%" y="0%" filterUnits="objectBoundingBox"><feComponentTransfer in="SourceGraphic"><feFuncA tableValues="1.0 0.0" type="table"/></feComponentTransfer></filter><filter id="d" width="100%" height="100%" x="0%" y="0%" filterUnits="objectBoundingBox"><feComponentTransfer in="SourceGraphic"><feFuncA tableValues="1.0 0.0" type="table"/></feComponentTransfer></filter><mask id="k" mask-type="alpha"><g filter="url(#a)"><path fill="#fff" d="M0 0h430v430H0z" opacity="0"/><use xmlns:ns1="http://www.w3.org/1999/xlink" ns1:href="#b"/></g></mask><mask id="j" mask-type="alpha"><g filter="url(#d)"><path fill="#fff" d="M0 0h430v430H0z" opacity="0"/><use xmlns:ns2="http://www.w3.org/1999/xlink" ns2:href="#e"/></g></mask><path id="e" style="display:none"/><g id="b" clip-path="url(#f)" style="display:none"><g style="display:none"><path fill-opacity="0" stroke-linecap="round" stroke-linejoin="round" class="secondary"/><path/></g><g style="display:none"><path fill-opacity="0" stroke-linecap="round" stroke-linejoin="round" class="secondary"/><path/></g></g></defs><g clip-path="url(#g)"><g clip-path="url(#h)" style="display:none"><g clip-path="url(#i)" mask="url(#j)" style="display:none"><path fill="none" class="secondary" style="display:none"/><path fill="none" class="secondary" style="display:none"/><path fill="none" class="secondary" style="display:none"/><g mask="url(#k)" style="display:none"><path fill="none" class="secondary"/></g><path fill="none" class="secondary" style="display:none"/><path fill="none" class="secondary" style="display:none"/><path fill="#fff" d="M0 0h100v100H0z" style="display:none"/></g><g fill="none" style="display:none"><path class="primary"/><path class="secondary"/></g><g fill="none" style="display:none"><path class="primary"/><path class="secondary"/></g></g><g fill="none" stroke-linecap="round" stroke-linejoin="round" stroke-width="12.6" clip-path="url(#l)" style="display:block"><path stroke="#66D6ED" d="M99.978 91.62c-.009 4.936-.013 11.61-.018 18.913l-.163 251.874c-.01 14.901 12.082 27 26.983 27h181.003c14.902 0 26.976-12.099 26.946-27l-.507-250.191c-.019-9.207-.037-17.496-.055-22.603" class="primary"/><path stroke="#ED8F66" d="M158.658 155.952v155.907m58.671-155.907v155.907m58.41-155.907v155.907" class="secondary"/><path stroke="#66D6ED" d="M172.805 76.951c3.005-21.88 21.775-38.786 44.486-38.834q0 0 0 0c22.167-.047 40.647 15.98 44.4 37.085" class="primary"/><path stroke="#ED8F66" d="m77.386 82.989 278.817.177" class="secondary"/></g><g fill="none" stroke-linecap="round" stroke-linejoin="round" stroke-width="12.6" clip-path="url(#m)" style="display:none"><g style="display:block"><path stroke="#ED8F66" d="M158.658 155.952v155.907m58.671-155.907v155.907m58.41-155.907v155.907" class="secondary"/><path stroke="#66D6ED" d="m99.983 86.328-.023 24.205-.163 251.874c-.01 14.901 12.082 27 26.983 27h181.003c14.902 0 26.976-12.099 26.946-27l-.507-250.191c-.03-14.901-.063-27.401-.073-27.895q0 0 0 0" class="primary"/></g><g style="display:block"><path stroke="#66D6ED" d="M172.82 76.85c3.046-21.887 21.838-38.74 44.568-38.74q0 0 0 0c21.204 0 38.983 14.666 43.749 34.412" class="primary"/><path stroke="#ED8F66" d="m77.388 82.687 278.815.765" class="secondary"/></g></g></g></svg>