<svg xmlns="http://www.w3.org/2000/svg" width="430" height="430" style="width:100%;height:100%;transform:translate3d(0,0,0);content-visibility:visible" viewBox="0 0 430 430"><defs><clipPath id="i"><path d="M0 0h430v430H0z"/></clipPath><clipPath id="n"><path d="M0 0h430v430H0z"/></clipPath><clipPath id="o"><path fill="#fff"/></clipPath><clipPath id="m"><path d="M0 0h430v430H0z"/></clipPath><clipPath id="j"><path d="M0 0h430v430H0z"/></clipPath><clipPath id="f"><path d="M0 0h430v430H0z"/></clipPath><clipPath id="h"><path d="M0 0h430v430H0z"/></clipPath><filter id="a" width="100%" height="100%" x="0%" y="0%" filterUnits="objectBoundingBox"><feComponentTransfer in="SourceGraphic"><feFuncA tableValues="1.0 0.0" type="table"/></feComponentTransfer></filter><filter id="c" width="100%" height="100%" x="0%" y="0%" filterUnits="objectBoundingBox"><feComponentTransfer in="SourceGraphic"><feFuncA tableValues="1.0 0.0" type="table"/></feComponentTransfer></filter><mask id="l" mask-type="alpha"><g filter="url(#a)"><path fill="#fff" d="M0 0h430v430H0z" opacity="0"/><use xmlns:ns1="http://www.w3.org/1999/xlink" ns1:href="#b"/></g></mask><mask id="k" mask-type="alpha"><g filter="url(#c)"><path fill="#fff" d="M0 0h430v430H0z" opacity="0"/><use xmlns:ns2="http://www.w3.org/1999/xlink" ns2:href="#e"/></g></mask><g id="b" clip-path="url(#f)" style="display:none"><path style="display:none"/><path style="display:none"/></g><g id="e" clip-path="url(#h)" style="display:none"><path style="display:none"/><path style="display:none"/></g></defs><g clip-path="url(#i)"><g clip-path="url(#j)" style="display:none"><path fill="none" class="primary" style="display:none"/><g fill="none" style="display:none"><path class="primary"/><path class="primary"/></g><path fill="none" class="primary" style="display:none"/><path fill="none" class="secondary" style="display:none"/><path fill="none" class="secondary" style="display:none"/><path fill="none" class="secondary" style="display:none"/><path fill="none" class="secondary" style="display:none"/><g mask="url(#k)" style="display:none"><path fill="none" class="primary"/></g><g mask="url(#l)" style="display:none"><path fill="none" class="primary"/></g><path fill="none" class="secondary" style="display:none"/><path fill="none" class="secondary" style="display:none"/><path fill="none" class="secondary" style="display:none"/><path fill="none" class="secondary" style="display:none"/></g><g fill="none" stroke-linejoin="round" stroke-width="12" clip-path="url(#m)" style="display:block"><path stroke="#121331" d="m80-62.5-160-65v190l160 65z" class="primary" style="display:block" transform="translate(135 247.5)"/><path stroke="#121331" d="M325.967 139.92 375 120v190l-160 65m0-190 59.011-23.973" class="primary" style="display:block"/><path stroke="#121331" stroke-linecap="round" d="m-160 32.5 160-65 160 65" class="primary" style="display:block" transform="translate(215 87.5)"/><path stroke="#08A88A" stroke-linecap="round" d="m54.915-17.282-159.83-64.939 49.925-20.345 159.905 64.964V72.404l-25 30.162-25-9.837z" class="secondary" style="display:block" transform="translate(219.915 177.976)"/></g><g clip-path="url(#n)" style="display:none"><g fill="none" style="display:none"><path class="primary"/><path class="primary"/><path class="primary"/></g><g clip-path="url(#o)" style="display:none"><path fill="none" class="secondary"/></g><path fill="none" class="secondary" style="display:none"/></g></g></svg>